<svg xmlns="http://www.w3.org/2000/svg" xmlns:xlink="http://www.w3.org/1999/xlink" width="500" zoomAndPan="magnify" viewBox="0 0 375 374.999991" height="500" preserveAspectRatio="xMidYMid meet" version="1.0"><defs><g/><clipPath id="4e59a16273"><path d="M 0 14.765625 L 375 14.765625 L 375 360.515625 L 0 360.515625 Z M 0 14.765625 " clip-rule="nonzero"/></clipPath></defs><rect x="-37.5" width="450" fill="#ffffff" y="-37.499999" height="449.999989" fill-opacity="1"/><rect x="-37.5" width="450" fill="#ffffff" y="-37.499999" height="449.999989" fill-opacity="1"/><g clip-path="url(#4e59a16273)"><path fill="#000000" d="M 347.675781 24.863281 C 351.171875 25.402344 353.78125 28.339844 355.648438 31.34375 C 366.75 49.203125 361.046875 73.695312 347.484375 89.765625 C 342.996094 95.089844 337.652344 99.738281 331.75 103.445312 C 331.140625 100.34375 330.09375 97.394531 328.671875 94.671875 C 324.957031 87.5625 318.714844 81.980469 311.140625 79.128906 C 309.015625 78.328125 306.789062 77.738281 304.484375 77.394531 C 304.210938 71.414062 302.328125 65.847656 299.253906 61.117188 C 311.710938 50.660156 324.171875 40.203125 336.632812 29.746094 C 339.511719 27.328125 342.855469 24.773438 346.507812 24.773438 C 346.894531 24.773438 347.28125 24.804688 347.675781 24.863281 Z M 33.058594 25.34375 C 33.453125 25.285156 33.839844 25.253906 34.230469 25.253906 C 37.882812 25.253906 41.222656 27.8125 44.101562 30.230469 C 54.625 39.058594 65.144531 47.886719 75.664062 56.71875 C 72.628906 61.425781 70.769531 66.953125 70.496094 72.894531 C 68.277344 73.226562 66.128906 73.785156 64.074219 74.542969 C 56.546875 77.3125 50.304688 82.765625 46.53125 89.75 C 44.871094 92.824219 43.691406 96.191406 43.085938 99.753906 C 39.5 96.917969 36.1875 93.734375 33.25 90.246094 C 19.6875 74.175781 13.988281 49.683594 25.085938 31.824219 C 26.953125 28.820312 29.5625 25.882812 33.058594 25.34375 Z M 349.484375 281.8125 C 356.488281 285.679688 361.242188 293.136719 361.242188 301.707031 C 361.242188 312.597656 353.574219 321.691406 343.34375 323.902344 C 349.40625 327.976562 353.394531 334.902344 353.394531 342.757812 C 353.394531 345.386719 352.929688 347.902344 352.109375 350.25 L 25.035156 350.25 C 22.863281 346.769531 21.585938 342.667969 21.585938 338.257812 C 21.585938 330.402344 25.574219 323.476562 31.640625 319.398438 C 21.410156 317.1875 13.742188 308.101562 13.742188 297.207031 C 13.742188 288.636719 18.492188 281.179688 25.5 277.3125 C 16.539062 274.273438 10.082031 265.804688 10.082031 255.816406 C 10.082031 247.003906 15.109375 239.378906 22.449219 235.613281 C 15.109375 231.847656 10.082031 224.222656 10.082031 215.410156 C 10.082031 204.820312 17.332031 195.949219 27.136719 193.433594 C 21.453125 189.304688 17.746094 182.625 17.746094 175.0625 C 17.746094 164.066406 25.566406 154.898438 35.945312 152.800781 C 32.207031 148.753906 29.902344 143.359375 29.902344 137.410156 C 29.902344 124.867188 40.074219 114.699219 52.617188 114.699219 C 53.335938 114.699219 54.042969 114.742188 54.746094 114.808594 C 53.394531 111.898438 52.617188 108.671875 52.617188 105.253906 C 52.617188 92.710938 62.785156 82.539062 75.332031 82.539062 C 77.828125 82.539062 80.222656 82.957031 82.472656 83.699219 C 81.191406 80.859375 80.464844 77.714844 80.464844 74.398438 C 80.464844 61.851562 90.632812 51.683594 103.179688 51.683594 C 107.875 51.683594 112.234375 53.109375 115.851562 55.546875 C 115.636719 54.289062 115.5 53.003906 115.5 51.683594 C 115.5 39.136719 125.667969 28.96875 138.214844 28.96875 C 145.695312 28.96875 152.3125 32.601562 156.449219 38.179688 C 160.121094 30.574219 167.882812 25.308594 176.898438 25.308594 C 182.667969 25.308594 187.921875 27.480469 191.929688 31.023438 C 195.933594 27.480469 201.1875 25.308594 206.960938 25.308594 C 215.109375 25.308594 222.238281 29.617188 226.246094 36.066406 C 229.394531 34.414062 232.96875 33.46875 236.769531 33.46875 C 249.3125 33.46875 259.484375 43.640625 259.484375 56.183594 C 259.484375 57.503906 259.34375 58.789062 259.128906 60.046875 C 262.75 57.609375 267.113281 56.183594 271.804688 56.183594 C 284.351562 56.183594 294.519531 66.355469 294.519531 78.898438 C 294.519531 82.214844 293.789062 85.359375 292.511719 88.199219 C 294.757812 87.457031 297.152344 87.035156 299.652344 87.035156 C 312.199219 87.035156 322.363281 97.207031 322.363281 109.75 C 322.363281 113.167969 321.589844 116.398438 320.238281 119.304688 C 320.9375 119.242188 321.648438 119.199219 322.363281 119.199219 C 334.910156 119.199219 345.078125 129.371094 345.078125 141.914062 C 345.078125 147.859375 342.777344 153.253906 339.035156 157.304688 C 349.421875 159.394531 357.238281 168.566406 357.238281 179.566406 C 357.238281 187.125 353.53125 193.804688 347.847656 197.933594 C 357.648438 200.453125 364.902344 209.320312 364.902344 219.90625 C 364.902344 228.722656 359.871094 236.347656 352.535156 240.113281 C 359.871094 243.875 364.902344 251.503906 364.902344 260.316406 C 364.902344 270.308594 358.445312 278.769531 349.484375 281.8125 Z M 363.355469 194.976562 C 365.863281 190.285156 367.238281 184.996094 367.238281 179.566406 C 367.238281 168.640625 361.769531 158.722656 353.234375 152.738281 C 354.445312 149.292969 355.078125 145.636719 355.078125 141.914062 C 355.078125 128.882812 347.410156 117.625 336.355469 112.371094 C 343.292969 108.121094 349.671875 102.683594 355.128906 96.214844 C 363.152344 86.707031 368.671875 74.867188 370.679688 62.875 C 372.945312 49.320312 370.6875 36.59375 364.140625 26.0625 C 360.136719 19.621094 355.109375 15.886719 349.203125 14.976562 C 348.3125 14.84375 347.40625 14.773438 346.507812 14.773438 C 338.917969 14.773438 333.246094 19.53125 330.203125 22.085938 C 323.238281 27.929688 316.277344 33.773438 309.316406 39.621094 C 303.742188 44.300781 298.164062 48.980469 292.585938 53.660156 C 286.929688 48.992188 279.691406 46.179688 271.804688 46.179688 C 270.523438 46.179688 269.25 46.257812 267.992188 46.402344 C 263.820312 33.125 251.402344 23.464844 236.769531 23.464844 C 234.316406 23.464844 231.867188 23.75 229.476562 24.296875 C 223.484375 18.570312 215.496094 15.308594 206.960938 15.308594 C 201.691406 15.308594 196.542969 16.585938 191.929688 18.980469 C 187.3125 16.585938 182.164062 15.308594 176.898438 15.308594 C 168.757812 15.308594 161.003906 18.410156 155.089844 23.695312 C 150.046875 20.648438 144.210938 18.96875 138.214844 18.96875 C 123.582031 18.96875 111.160156 28.625 106.992188 41.902344 C 105.734375 41.753906 104.460938 41.683594 103.179688 41.683594 C 95.246094 41.683594 87.972656 44.523438 82.304688 49.238281 C 78.65625 46.175781 75.007812 43.117188 71.363281 40.058594 C 64.421875 34.226562 57.476562 28.398438 50.535156 22.566406 C 47.488281 20.011719 41.820312 15.253906 34.230469 15.253906 C 33.328125 15.253906 32.421875 15.324219 31.535156 15.460938 C 25.625 16.371094 20.597656 20.097656 16.589844 26.546875 C 10.050781 37.074219 7.789062 49.800781 10.054688 63.355469 C 12.0625 75.347656 17.585938 87.191406 25.605469 96.699219 C 29.273438 101.042969 33.363281 104.910156 37.75 108.285156 C 27.164062 113.707031 19.902344 124.726562 19.902344 137.410156 C 19.902344 141.140625 20.535156 144.792969 21.75 148.238281 C 13.210938 154.222656 7.746094 164.140625 7.746094 175.0625 C 7.746094 180.496094 9.117188 185.785156 11.628906 190.476562 C 4.480469 196.539062 0.078125 205.558594 0.078125 215.410156 C 0.078125 222.898438 2.605469 229.960938 7.054688 235.613281 C 2.605469 241.265625 0.078125 248.324219 0.078125 255.816406 C 0.078125 264.59375 3.578125 272.753906 9.457031 278.734375 C 5.796875 284.089844 3.738281 290.5 3.738281 297.207031 C 3.738281 307.167969 8.335938 316.339844 15.667969 322.417969 C 13.027344 327.195312 11.582031 332.625 11.582031 338.257812 C 11.582031 344.363281 13.300781 350.339844 16.550781 355.546875 L 19.488281 360.253906 L 359.199219 360.253906 L 361.546875 353.558594 C 362.777344 350.042969 363.398438 346.410156 363.398438 342.757812 C 363.398438 337.128906 361.957031 331.695312 359.316406 326.917969 C 366.644531 320.839844 371.242188 311.667969 371.242188 301.707031 C 371.242188 295 369.1875 288.585938 365.523438 283.238281 C 371.402344 277.253906 374.90625 269.09375 374.90625 260.316406 C 374.90625 252.824219 372.378906 245.765625 367.929688 240.113281 C 372.378906 234.460938 374.90625 227.402344 374.90625 219.90625 C 374.90625 210.058594 370.503906 201.039062 363.355469 194.976562 " fill-opacity="1" fill-rule="nonzero"/></g><path fill="#000000" d="M 298.433594 199.46875 C 298.433594 242.359375 249.269531 277.128906 188.617188 277.128906 C 127.96875 277.128906 78.800781 242.359375 78.800781 199.46875 C 78.800781 156.582031 127.96875 121.8125 188.617188 121.8125 C 249.269531 121.8125 298.433594 156.582031 298.433594 199.46875 Z M 272.046875 136.394531 C 249.632812 120.542969 220.003906 111.8125 188.617188 111.8125 C 157.234375 111.8125 127.605469 120.542969 105.191406 136.394531 C 81.722656 152.988281 68.800781 175.390625 68.800781 199.46875 C 68.800781 223.554688 81.722656 245.953125 105.191406 262.550781 C 127.605469 278.398438 157.234375 287.128906 188.617188 287.128906 C 220.003906 287.128906 249.632812 278.398438 272.046875 262.550781 C 295.511719 245.953125 308.4375 223.554688 308.4375 199.46875 C 308.4375 175.390625 295.511719 152.988281 272.046875 136.394531 " fill-opacity="1" fill-rule="nonzero"/><path fill="#000000" d="M 117.566406 199.46875 C 124.304688 199.46875 129.769531 194.007812 129.769531 187.269531 C 129.769531 180.527344 124.304688 175.0625 117.566406 175.0625 C 110.828125 175.0625 105.363281 180.527344 105.363281 187.269531 C 105.363281 194.007812 110.828125 199.46875 117.566406 199.46875 " fill-opacity="1" fill-rule="nonzero"/><path fill="#000000" d="M 259.207031 199.46875 C 265.945312 199.46875 271.410156 194.007812 271.410156 187.269531 C 271.410156 180.527344 265.945312 175.0625 259.207031 175.0625 C 252.46875 175.0625 247.003906 180.527344 247.003906 187.269531 C 247.003906 194.007812 252.46875 199.46875 259.207031 199.46875 " fill-opacity="1" fill-rule="nonzero"/><path fill="#000000" d="M 212.199219 222.90625 C 210.25 222 207.9375 222.847656 207.035156 224.796875 C 206.433594 226.097656 205.464844 227.207031 204.269531 227.988281 C 203.070312 228.765625 201.667969 229.210938 200.121094 229.214844 C 198.007812 229.210938 196.125 228.367188 194.738281 226.984375 C 193.355469 225.59375 192.507812 223.714844 192.507812 221.601562 L 192.507812 200.398438 L 201.433594 188.65625 C 202.734375 186.945312 202.402344 184.507812 200.691406 183.207031 C 198.980469 181.90625 196.539062 182.238281 195.238281 183.949219 L 195.238281 183.945312 L 188.339844 193.027344 L 179.765625 183.671875 C 178.3125 182.089844 175.851562 181.980469 174.269531 183.433594 C 172.683594 184.886719 172.578125 187.347656 174.027344 188.929688 L 184.730469 200.601562 L 184.730469 221.601562 C 184.726562 223.714844 183.882812 225.59375 182.5 226.984375 C 181.109375 228.367188 179.230469 229.210938 177.117188 229.214844 C 175.570312 229.210938 174.164062 228.765625 172.96875 227.988281 C 171.773438 227.207031 170.804688 226.097656 170.203125 224.796875 C 169.300781 222.847656 166.988281 222 165.039062 222.90625 C 163.089844 223.808594 162.242188 226.117188 163.144531 228.066406 C 164.371094 230.707031 166.308594 232.929688 168.722656 234.503906 C 171.128906 236.078125 174.03125 236.996094 177.117188 236.992188 C 181.355469 236.996094 185.226562 235.265625 188 232.484375 C 188.21875 232.269531 188.414062 232.035156 188.617188 231.804688 C 188.820312 232.035156 189.019531 232.269531 189.238281 232.484375 C 192.011719 235.265625 195.882812 236.996094 200.121094 236.992188 C 203.203125 236.996094 206.105469 236.078125 208.515625 234.503906 C 210.925781 232.929688 212.867188 230.707031 214.089844 228.070312 C 214.996094 226.121094 214.148438 223.808594 212.199219 222.90625 " fill-opacity="1" fill-rule="nonzero"/><g fill="#000000" fill-opacity="1"><g transform="translate(186.148118, 351.859349)"><g><path d="M 0.328125 -0.546875 C 0.347656 -0.546875 0.367188 -0.546875 0.390625 -0.546875 L 0.390625 -0.46875 C 0.359375 -0.46875 0.335938 -0.46875 0.328125 -0.46875 C 0.285156 -0.46875 0.25 -0.445312 0.21875 -0.40625 C 0.1875 -0.375 0.171875 -0.332031 0.171875 -0.28125 L 0.171875 0 L 0.09375 0 L 0.09375 -0.53125 L 0.15625 -0.53125 L 0.15625 -0.4375 L 0.171875 -0.4375 C 0.191406 -0.46875 0.210938 -0.492188 0.234375 -0.515625 C 0.265625 -0.535156 0.296875 -0.546875 0.328125 -0.546875 Z M 0.328125 -0.546875 "/></g></g><g transform="translate(186.55632, 351.859349)"><g><path d="M 0.171875 0 L 0.09375 0 L 0.09375 -0.765625 L 0.171875 -0.765625 Z M 0.171875 0 "/></g></g><g transform="translate(186.809249, 351.859349)"><g><path d="M 0.421875 0 L 0.40625 -0.078125 L 0.390625 -0.078125 C 0.367188 -0.046875 0.34375 -0.0195312 0.3125 0 C 0.289062 0.0078125 0.257812 0.015625 0.21875 0.015625 C 0.164062 0.015625 0.125 0 0.09375 -0.03125 C 0.0625 -0.0625 0.046875 -0.0976562 0.046875 -0.140625 C 0.046875 -0.253906 0.132812 -0.3125 0.3125 -0.3125 L 0.390625 -0.328125 L 0.390625 -0.359375 C 0.390625 -0.398438 0.378906 -0.429688 0.359375 -0.453125 C 0.347656 -0.472656 0.320312 -0.484375 0.28125 -0.484375 C 0.238281 -0.484375 0.1875 -0.46875 0.125 -0.4375 L 0.109375 -0.5 C 0.128906 -0.507812 0.15625 -0.519531 0.1875 -0.53125 C 0.21875 -0.539062 0.25 -0.546875 0.28125 -0.546875 C 0.351562 -0.546875 0.398438 -0.53125 0.421875 -0.5 C 0.453125 -0.46875 0.46875 -0.421875 0.46875 -0.359375 L 0.46875 0 Z M 0.234375 -0.0625 C 0.285156 -0.0625 0.320312 -0.0703125 0.34375 -0.09375 C 0.375 -0.125 0.390625 -0.164062 0.390625 -0.21875 L 0.390625 -0.265625 L 0.3125 -0.265625 C 0.25 -0.253906 0.203125 -0.238281 0.171875 -0.21875 C 0.140625 -0.207031 0.125 -0.179688 0.125 -0.140625 C 0.125 -0.117188 0.132812 -0.0976562 0.15625 -0.078125 C 0.175781 -0.0664062 0.203125 -0.0625 0.234375 -0.0625 Z M 0.234375 -0.0625 "/></g></g><g transform="translate(187.3654, 351.859349)"><g><path d="M 0.765625 0 L 0.765625 -0.34375 C 0.765625 -0.382812 0.753906 -0.414062 0.734375 -0.4375 C 0.722656 -0.457031 0.695312 -0.46875 0.65625 -0.46875 C 0.601562 -0.46875 0.566406 -0.453125 0.546875 -0.421875 C 0.523438 -0.398438 0.515625 -0.359375 0.515625 -0.296875 L 0.515625 0 L 0.421875 0 L 0.421875 -0.34375 C 0.421875 -0.382812 0.410156 -0.414062 0.390625 -0.4375 C 0.378906 -0.457031 0.351562 -0.46875 0.3125 -0.46875 C 0.257812 -0.46875 0.222656 -0.453125 0.203125 -0.421875 C 0.179688 -0.398438 0.171875 -0.351562 0.171875 -0.28125 L 0.171875 0 L 0.09375 0 L 0.09375 -0.53125 L 0.15625 -0.53125 L 0.171875 -0.46875 C 0.179688 -0.488281 0.203125 -0.503906 0.234375 -0.515625 C 0.265625 -0.535156 0.296875 -0.546875 0.328125 -0.546875 C 0.410156 -0.546875 0.460938 -0.515625 0.484375 -0.453125 L 0.5 -0.453125 C 0.507812 -0.484375 0.53125 -0.503906 0.5625 -0.515625 C 0.59375 -0.535156 0.628906 -0.546875 0.671875 -0.546875 C 0.734375 -0.546875 0.773438 -0.53125 0.796875 -0.5 C 0.828125 -0.46875 0.84375 -0.414062 0.84375 -0.34375 L 0.84375 0 Z M 0.765625 0 "/></g></g><g transform="translate(188.295573, 351.859349)"><g><path d="M 0.421875 0 L 0.40625 -0.078125 L 0.390625 -0.078125 C 0.367188 -0.046875 0.34375 -0.0195312 0.3125 0 C 0.289062 0.0078125 0.257812 0.015625 0.21875 0.015625 C 0.164062 0.015625 0.125 0 0.09375 -0.03125 C 0.0625 -0.0625 0.046875 -0.0976562 0.046875 -0.140625 C 0.046875 -0.253906 0.132812 -0.3125 0.3125 -0.3125 L 0.390625 -0.328125 L 0.390625 -0.359375 C 0.390625 -0.398438 0.378906 -0.429688 0.359375 -0.453125 C 0.347656 -0.472656 0.320312 -0.484375 0.28125 -0.484375 C 0.238281 -0.484375 0.1875 -0.46875 0.125 -0.4375 L 0.109375 -0.5 C 0.128906 -0.507812 0.15625 -0.519531 0.1875 -0.53125 C 0.21875 -0.539062 0.25 -0.546875 0.28125 -0.546875 C 0.351562 -0.546875 0.398438 -0.53125 0.421875 -0.5 C 0.453125 -0.46875 0.46875 -0.421875 0.46875 -0.359375 L 0.46875 0 Z M 0.234375 -0.0625 C 0.285156 -0.0625 0.320312 -0.0703125 0.34375 -0.09375 C 0.375 -0.125 0.390625 -0.164062 0.390625 -0.21875 L 0.390625 -0.265625 L 0.3125 -0.265625 C 0.25 -0.253906 0.203125 -0.238281 0.171875 -0.21875 C 0.140625 -0.207031 0.125 -0.179688 0.125 -0.140625 C 0.125 -0.117188 0.132812 -0.0976562 0.15625 -0.078125 C 0.175781 -0.0664062 0.203125 -0.0625 0.234375 -0.0625 Z M 0.234375 -0.0625 "/></g></g></g></svg>